10lbsSpring1
version=1
nRows=44
nColumns=28
inDegrees=yes
endheader
time	ground_force1_vx	ground_force1_vy	ground_force1_vz	ground_force1_px	ground_force1_py	ground_force1_pz	ground_torque1_x	ground_torque1_y	ground_torque1_z	ground_force2_vx	ground_force2_vy	ground_force2_vz	ground_force2_px	ground_force2_py	ground_force2_pz	ground_torque2_x	ground_torque2_y	ground_torque2_z	ground_force3_vx	ground_force3_vy	ground_force3_vz	ground_force3_px	ground_force3_py	ground_force3_pz	ground_torque3_x	ground_torque3_y	ground_torque3_z
2.602000	0.039609	-0.333049	-0.084265	-0.203000	0.000000	0.001500	-0.105847	0.085370	0.030961	-0.184521	38.027031	-4.998400	-0.177938	0.000000	-0.576912	-0.000000	-0.550453	0.000000	0.002773	-2.346411	-0.363880	0.200000	0.000000	-0.300000	-0.017390	0.073416	0.075490	
2.603000	0.045830	-0.758524	0.046401	-0.203000	0.000000	0.001500	-0.020802	0.067672	-0.040413	-0.323430	38.316719	-5.079163	-0.178170	0.000000	-0.574988	0.000001	-0.537485	-0.000000	0.133405	-1.372148	-0.363607	0.200000	0.000000	-0.300000	-0.016090	0.042441	0.076409	
2.604000	-0.150237	-1.426478	0.089690	-0.203000	0.000000	0.001500	0.171395	0.117394	-0.010203	-0.361275	38.931110	-5.232462	-0.177534	0.000000	-0.574453	-0.000001	-0.539503	-0.000001	0.125468	-1.311620	-0.554104	0.200000	0.000000	-0.300000	0.068175	0.038288	0.031520	
2.605000	0.018065	-1.236020	-0.102018	-0.203000	0.000000	0.001500	0.162136	0.177148	-0.023243	-0.221949	39.585052	-5.491554	-0.174954	0.000000	-0.576320	0.000003	-0.513600	-0.000000	0.130886	-1.774999	-0.581040	0.200000	0.000000	-0.300000	-0.012752	0.092109	-0.029008	
2.606000	0.115827	0.065422	-0.222106	-0.203000	0.000000	0.001500	0.085635	0.218336	-0.074351	-0.091211	39.229187	-5.449543	-0.177342	0.000000	-0.578200	0.000001	-0.544379	-0.000000	0.173844	-1.627891	-0.502071	0.200000	0.000000	-0.300000	-0.106036	0.070505	-0.076067	
2.607000	0.052428	0.309501	-0.036874	-0.203000	0.000000	0.001500	0.057982	0.181942	-0.071734	-0.046730	39.248096	-4.964386	-0.178341	0.000000	-0.579497	0.000001	-0.587627	-0.000000	0.315558	-1.797618	-0.546247	0.200000	0.000000	-0.300000	-0.044104	0.035800	-0.011690	
2.608000	0.080892	-1.302448	0.087337	-0.203000	0.000000	0.001500	0.030978	0.154134	-0.075545	-0.137817	39.226593	-4.930276	-0.175808	0.000000	-0.578061	-0.000001	-0.586253	-0.000001	0.064427	-1.986642	-0.448601	0.200000	0.000000	-0.300000	-0.043263	0.055170	0.031559	
2.609000	0.092236	-0.815885	-0.007900	-0.203000	0.000000	0.001500	0.111620	0.106366	-0.130517	-0.177421	38.488609	-5.063685	-0.177532	0.000000	-0.575008	0.000000	-0.574417	-0.000001	-0.081969	-2.155208	-0.362603	0.200000	0.000000	-0.300000	-0.014729	0.023740	0.130401	
2.610000	0.083502	0.165693	-0.043295	-0.203000	0.000000	0.001500	0.059909	0.033939	-0.085042	-0.331891	38.172646	-5.298020	-0.180129	0.000000	-0.575787	0.000001	-0.617973	-0.000000	-0.102563	-2.155096	-0.362373	0.200000	0.000000	-0.300000	-0.065561	0.009582	0.139710	
2.611000	-0.003782	-0.756141	-0.142782	-0.203000	0.000000	0.001500	0.111871	0.038285	-0.056682	-0.549300	38.908100	-5.370404	-0.179812	0.000000	-0.575057	-0.000000	-0.595322	-0.000001	-0.130371	-1.775037	-0.408905	0.200000	0.000000	-0.300000	-0.102970	0.026090	0.130484	
2.612000	-0.049787	-0.859157	-0.031458	-0.203000	0.000000	0.001500	0.196325	0.101743	-0.086040	-0.347455	39.224110	-5.237696	-0.175847	0.000000	-0.572947	-0.000000	-0.540862	0.000000	-0.004787	-1.246833	-0.451771	0.200000	0.000000	-0.300000	-0.131724	0.037143	0.212458	
2.613000	0.001096	-1.300714	-0.059181	-0.203000	0.000000	0.001500	0.105058	0.127234	-0.034835	-0.369203	38.869751	-5.097681	-0.173762	0.000000	-0.579604	0.000002	-0.548273	-0.000000	0.092975	-2.975706	-0.313504	0.200000	0.000000	-0.300000	-0.166423	0.024404	0.166540	
2.614000	0.037530	-1.005685	-0.127368	-0.203000	0.000000	0.001500	0.016738	0.059550	-0.002727	-0.536478	40.026302	-4.916101	-0.177808	0.000000	-0.582887	0.000000	-0.576176	-0.000001	0.129565	-3.154952	-0.376718	0.200000	0.000000	-0.300000	-0.034304	0.007959	0.135680	
2.615000	-0.191987	-0.567373	-0.187681	-0.203000	0.000000	0.001500	0.086012	0.038363	0.044497	-0.494336	41.776524	-4.497349	-0.182236	0.000000	-0.584278	0.000002	-0.622756	0.000000	-0.057616	-1.795582	-0.542077	0.200000	0.000000	-0.300000	0.085500	0.036814	0.177217	
2.616000	0.058771	-1.069200	-0.500847	-0.203000	0.000000	0.001500	0.111003	0.111231	-0.025915	-0.440163	43.417484	-4.005732	-0.179878	0.000000	-0.589430	0.000002	-0.675452	-0.000001	-0.230053	-2.173824	-0.445981	0.200000	0.000000	-0.300000	-0.073641	-0.004218	0.128497	
2.617000	0.203886	-1.068114	-0.203185	-0.203000	0.000000	0.001500	0.034950	0.165098	-0.133626	-0.441951	43.676147	-3.690254	-0.179625	0.000000	-0.593282	0.000000	-0.713358	-0.000000	-0.224894	-1.945421	-0.408027	0.200000	0.000000	-0.300000	-0.075828	-0.007787	0.152656	
2.618000	-0.099131	-1.446795	-0.105005	-0.203000	0.000000	0.001500	0.113466	0.123960	-0.138601	-0.196493	43.190517	-3.420344	-0.179191	0.000000	-0.595305	0.000001	-0.688213	-0.000000	-0.087588	-2.004462	-0.357443	0.200000	0.000000	-0.300000	0.046991	0.016298	0.139419	
2.619000	0.097636	-1.404807	-0.218007	-0.203000	0.000000	0.001500	0.096783	0.062529	-0.127747	-0.128420	43.546833	-3.291834	-0.177509	0.000000	-0.594712	0.000002	-0.686868	-0.000000	-0.331384	-2.324197	-0.270182	0.200000	0.000000	-0.300000	-0.016343	0.037468	0.156766	
2.620000	0.165739	-0.503326	-0.044355	-0.203000	0.000000	0.001500	-0.000912	0.025539	-0.057124	-0.445881	42.582336	-3.718648	-0.177984	0.000000	-0.592851	0.000001	-0.727645	-0.000000	-0.160070	-2.154522	-0.508489	0.200000	0.000000	-0.300000	-0.112223	0.062713	0.049904	
2.621000	0.044819	-0.564449	-0.048166	-0.203000	0.000000	0.001500	-0.047779	0.047940	-0.058277	-0.912498	41.185631	-4.386166	-0.177994	0.000000	-0.588905	0.000000	-0.726337	-0.000001	-0.016337	-3.290291	-0.393816	0.200000	0.000000	-0.300000	-0.081306	0.043688	0.060083	
2.622000	0.040065	-0.504571	-0.043056	-0.203000	0.000000	0.001500	-0.042710	0.042854	-0.052095	-0.979193	40.281052	-4.930088	-0.177413	0.000000	-0.588289	0.000002	-0.713886	-0.000000	-0.126953	-3.177575	-0.188735	0.200000	0.000000	-0.300000	-0.011427	0.025357	0.177528	
2.623000	0.137098	-1.315602	-0.002626	-0.203000	0.000000	0.001500	0.001432	0.047337	0.029806	-0.529879	39.400074	-5.288630	-0.175421	0.000000	-0.586870	0.000002	-0.687319	0.000000	-0.097318	-1.777220	-0.366396	0.200000	0.000000	-0.300000	0.096969	-0.011607	0.162178	
2.624000	0.212949	-2.493486	-0.004477	-0.203000	0.000000	0.001500	-0.020594	0.118689	0.002687	-0.509209	38.872349	-5.518538	-0.176013	0.000000	-0.583645	0.000000	-0.630381	-0.000000	-0.085968	-2.758773	-0.264515	0.200000	0.000000	-0.300000	0.066092	0.000350	0.159421	
2.625000	0.267663	-1.365930	-0.004061	-0.203000	0.000000	0.001500	-0.019118	0.155158	0.007782	-0.541734	39.079185	-5.600413	-0.177502	0.000000	-0.584548	0.000001	-0.554190	-0.000000	-0.140858	-2.253463	-0.139570	0.200000	0.000000	-0.300000	-0.074512	0.016220	0.071407	
2.626000	0.255805	-0.918340	-0.285978	-0.203000	0.000000	0.001500	-0.102627	0.144854	0.022081	-0.458551	38.851181	-5.414575	-0.177266	0.000000	-0.582358	0.000001	-0.562037	-0.000000	-0.038062	-1.095016	-0.417358	0.200000	0.000000	-0.300000	-0.127622	0.028366	0.056391	
2.627000	0.220029	-0.486027	-0.256562	-0.203000	0.000000	0.001500	-0.115732	0.176068	0.009308	-0.402014	38.529785	-5.379883	-0.174550	0.000000	-0.580574	0.000000	-0.581476	-0.000001	0.127045	-2.380101	-0.540719	0.200000	0.000000	-0.300000	0.004763	0.005608	0.172859	
2.628000	0.126676	0.169566	-0.001199	-0.203000	0.000000	0.001500	-0.020791	0.104219	0.011781	-0.412202	39.453976	-5.419112	-0.175011	0.000000	-0.582183	0.000002	-0.553983	-0.000000	0.085713	-2.480192	-0.454954	0.200000	0.000000	-0.300000	0.175012	0.010075	0.057003	
2.629000	0.091042	-1.124608	0.045050	-0.203000	0.000000	0.001500	-0.043317	0.095527	0.031760	-0.399493	40.136913	-4.947764	-0.176248	0.000000	-0.587763	-0.000000	-0.629815	-0.000000	0.224334	-2.173830	-0.597391	0.200000	0.000000	-0.300000	-0.036833	0.063635	-0.041936	
2.630000	-0.012509	-1.201249	-0.005568	-0.203000	0.000000	0.001500	-0.040866	0.143721	0.013728	-0.445200	40.514713	-4.128963	-0.175267	0.000000	-0.594417	0.000001	-0.666434	-0.000000	0.026914	-3.456777	-0.443069	0.200000	0.000000	-0.300000	-0.147679	0.042751	0.087616	
2.631000	-0.226943	-0.545220	-0.087416	-0.203000	0.000000	0.001500	0.089211	0.119113	0.047363	-0.430762	41.791927	-3.789044	-0.176204	0.000000	-0.596955	0.000001	-0.643645	-0.000000	-0.080630	-2.429538	-0.136147	0.200000	0.000000	-0.300000	-0.074432	0.017051	0.124274	
2.632000	-0.127888	-0.339022	-0.041333	-0.203000	0.000000	0.001500	0.082011	0.060577	0.054860	-0.256661	42.643600	-3.645200	-0.178311	0.000000	-0.598554	0.000003	-0.700518	-0.000000	0.182456	-1.284116	-0.141323	0.200000	0.000000	-0.300000	-0.070919	0.056218	0.115734	
2.633000	0.087352	-0.935752	-0.283377	-0.203000	0.000000	0.001500	-0.102597	0.066644	-0.059897	-0.444177	42.642483	-3.326320	-0.177494	0.000000	-0.598622	0.000000	-0.721589	0.000000	0.080137	-2.361372	-0.231992	0.200000	0.000000	-0.300000	-0.100672	0.042534	0.117747	
2.634000	-0.064361	-1.034190	-0.489424	-0.203000	0.000000	0.001500	-0.032679	0.137045	-0.029833	-0.558571	43.205421	-3.098988	-0.175139	0.000000	-0.598967	0.000002	-0.721206	-0.000001	-0.138604	-2.121744	-0.319024	0.200000	0.000000	-0.300000	-0.122865	-0.001177	0.091693	
2.635000	-0.183462	-1.106183	-0.586475	-0.203000	0.000000	0.001500	0.063492	0.155310	-0.013554	-0.616512	42.964977	-3.154434	-0.175555	0.000000	-0.597931	0.000001	-0.796663	-0.000000	0.052795	-2.940683	-0.365497	0.200000	0.000000	-0.300000	-0.150079	0.036854	0.085076	
2.636000	-0.145502	-1.970180	-0.386864	-0.203000	0.000000	0.001500	0.053488	0.124931	0.044093	-0.843066	41.907169	-3.518878	-0.175802	0.000000	-0.596739	0.000001	-0.746848	-0.000000	0.173010	-2.622283	-0.319276	0.200000	0.000000	-0.300000	-0.098409	0.024053	0.170557	
2.637000	-0.323364	-1.579793	-0.134163	-0.203000	0.000000	0.001500	0.129794	0.080789	0.041128	-0.932528	41.192299	-3.781974	-0.176329	0.000000	-0.597971	0.000002	-0.702488	-0.000000	0.037864	-2.016298	-0.508694	0.200000	0.000000	-0.300000	-0.136052	0.038164	0.114961	
2.638000	-0.309131	-0.697599	-0.222866	-0.203000	0.000000	0.001500	0.098138	0.130345	-0.040104	-0.748385	41.598351	-4.018486	-0.177207	0.000000	-0.594405	0.000001	-0.735471	-0.000000	0.133863	-2.874550	-0.679002	0.200000	0.000000	-0.300000	-0.269896	0.042352	0.121641	
2.639000	0.099383	-1.102753	0.057643	-0.203000	0.000000	0.001500	0.047562	0.124746	-0.059232	-0.484809	42.284313	-4.243346	-0.176989	0.000000	-0.594019	0.000002	-0.736778	-0.000001	0.029984	-1.748577	-0.492053	0.200000	0.000000	-0.300000	-0.146140	-0.000970	0.152218	
2.640000	0.396660	-1.219681	-0.162700	-0.203000	0.000000	0.001500	0.039652	0.091534	-0.032576	-0.730168	41.161369	-4.283748	-0.178728	0.000000	-0.594673	0.000001	-0.753665	-0.000000	-0.139649	-1.091768	-0.641611	0.200000	0.000000	-0.300000	-0.050017	0.008995	0.148872	
2.641000	0.528321	-1.083053	-0.491735	-0.203000	0.000000	0.001500	0.072986	0.166608	-0.023850	-1.031730	40.132813	-4.374013	-0.178640	0.000000	-0.593080	0.000002	-0.727848	0.000000	-0.192789	-1.997016	-0.900603	0.200000	0.000000	-0.300000	-0.104928	0.036482	0.162851	
2.642000	0.382036	-1.982813	-0.176237	-0.203000	0.000000	0.001500	0.035724	0.151219	-0.034706	-0.792685	40.134853	-4.320658	-0.175779	0.000000	-0.594580	0.000002	-0.733612	-0.000000	-0.226009	-2.326260	-0.478947	0.200000	0.000000	-0.300000	-0.176803	0.073086	0.186852	
2.643000	-0.010145	-1.376432	0.139078	-0.203000	0.000000	0.001500	0.054838	0.100124	-0.056868	-0.622845	40.320156	-4.192361	-0.175366	0.000000	-0.593257	0.000001	-0.703015	-0.000000	-0.320281	-1.779644	-0.230064	0.200000	0.000000	-0.300000	-0.115568	0.052658	0.166692	
2.644000	-0.178637	-0.730070	0.082473	-0.203000	0.000000	0.001500	-0.002464	0.090197	-0.099459	-0.475041	40.491337	-4.050810	-0.172571	0.000000	-0.595013	-0.000000	-0.650922	-0.000000	-0.126247	-2.371778	-0.549832	0.200000	0.000000	-0.300000	-0.025122	0.074581	0.074325	
2.645000	-0.086729	-0.511054	-0.042190	-0.203000	0.000000	0.001500	-0.064443	0.034596	-0.047544	-0.532677	41.427864	-3.777434	-0.171807	0.000000	-0.598374	0.000002	-0.700023	-0.000000	0.217520	-3.047030	-0.820855	0.200000	0.000000	-0.300000	-0.036381	0.069628	0.114826	
